<svg viewBox="139 -5.2 349.5 83.2" xmlns="http://www.w3.org/2000/svg">
	<path fill="#fd0" d="M214.8 3.8L229.6 25V3.8h28.9v70.6h-26.3l-16.1-22.9v11.9s-.1-.4.6.7 2.1 3.9.2 7.8-6.2 4.4-6.2 4.4h-44.8s-4.5-2.4-5.2-3.9-.6-4.6 1.2-6.3 2.8-3.6 2.8-3.6c-.9.4-1.7.4-1.7.4h-16.8s-1.9-.2-3.8-1.7-2.2-4.8-2.2-4.8V36h1.6c.4-.9.1-2.6 0-3.8-.1-.6-.4-2.3-.9-4.3-.5-1.7-1.3-3.7-1.7-5.4-.9-3.6 1.9-5.4 2.8-5.8s5.9-2.2 5.9-2.2l-.4-.4c-.1-4.2 3.4-4.2 3.4-4.2 0-.5.1-.6.1-.6 2.2-2.2 5.8-.6 5.8-.6.7-1.4 3.4-.6 3.4-.6s-.5-2.8-.6-3.6c-.1-.8-.8-3.1 1.1-4.2 2.3-1.4 4.2.3 4.2.3v-3s.2-2.8 2.4-2.8 3.1 2.1 3.1 2.1l17.2 25V3.5h27.2v.3zm-53 32.3h3.1v-3.4s-.6.5-.9.9-.9 1.3-1.2 1.6-1 .9-1 .9zM449.4-.2c21.6 0 39.1 17.5 39.1 39.1S471 78 449.4 78s-39.1-17.5-39.1-39.1S427.9-.2 449.4-.2zm0 47.2c4.5 0 8.1-3.6 8.1-8.1s-3.6-8.1-8.1-8.1-8.1 3.6-8.1 8.1 3.7 8.1 8.1 8.1z"/>
	<path fill="#fd0" d="M417.1 3.7v25h-13.7v45.8h-28.8v-46h-23.7v46h-28.7v-46h-13.7v21.4h-18.6v2.3h20.9v22.2h-50.3V3.6l156.6.1zM308.5 28.1v-2.5h-18.7v2.5h18.7z"/>
	<path fill="#7a7d7d" d="M165.8 73.2c-.6-.2-1.7-.7-2.2-1.8-.3-.8-.3-1.8 0-2.8.3-.3.6-.7 1-1.1 1.1-1.2 2.4-2.5 2.9-4l.5-2.5-.2-29.5c-.4-1.1-1.3-2.1-2.5-2.1-1.9 0-2.9 1.4-4 2.7-.6.8-1.2 1.6-2 2.1-.2 0-.2-.4-.2-1s0-1.1-.5-1.1c-.2 0-.4.1-.7.4-1.8 1.4-1.6 2.8-1.5 4.3.1.7.1 1.3 0 2.1v.2l9.5.2v17.8c-.3 1.1-.8 2-1.6 2.6l-1.8.6h-16.6c-1.1-.3-2.1-1.2-2.6-2.2l-.1-2.1c.1-3.2 0-6.2 0-9.1V39l9.2-.1v-.1c.2-1 .1-1.9.1-2.8V34.1l-.2.1c-.7.4-1.3 1.2-1.9 1.9-.2.3-.5.6-.7.9h-.1c-.1 0-.1 0-.2-.1-.2-.2-.2-.8-.2-1.2v-.2c-.1-.2 0-.5 0-.8.1-.6.1-1.4-.6-1.5h-.1l-3.2 3.7h-.2s-.2 0-.3-.1c0-.1-.1-.1 0-.2.3-4.7-.8-8.3-2-12.1-.3-.9-.6-1.8-.9-2.8-.1-.9.2-1.7.7-2 2.8-1.1 5.9-2.2 9.8-3.4.5-.3.4-.8.3-1.2-.4-.5-.8-.8-1.3-1.1-.4-.2-.7-.4-1-.7.1-.3.2-.4.6-.4h.8c1.7 0 2.9.8 3.8 1.6l.2.2v-.3c.1-.8-.5-1.2-1-1.7-.4-.4-.8-.7-.9-1.2.3-.1.5-.1.8-.1 1.1 0 2.4.6 4 1.9l.1.1.1-.1c.4-.5.1-1-.2-1.4-.2-.3-.4-.5-.3-.7 0-.1.1-.2.3-.3.5 0 1 .4 1.6.7s1.1.7 1.7.7c.5 0 .9-.2 1.3-.7.6-.6.4-1.5.2-2.3-.1-.3-.1-.5-.1-.7l-.9-5.1c0-.2.2-.4.3-.4h.4l1.5 1.5c.8.9 1.7 1.8 2.7 2.5l.1.1.4-.5.1-6.8 1 .2 45.6 66c.7 1.8.5 3.5-.7 5.2-1 1.2-2.1 1.8-3.5 1.9h-44.6zm-21.1-14.7c1 1.1 2.5 1.1 3.9 1.1H150l-.2-.2c-.2-.2-.4-.5-.6-.7-.7-.9-1.4-1.8-2.3-2.5l-.1-.1-2.1 2.4zm16.6-2.3c-.7.4-1.2 1.1-1.7 1.8-.2.3-.5.6-.7.9l-.1.1.4.5h.1c.3 0 .6.1.9.1.5.1 1.1.1 1.7.1 1 0 1.6-.2 2-.7l.1-.1-2.5-2.8-.2.1zm-9.8 2.8c.1.3.4.7.7.7l5.2-.2-.3-.4c-.9-1-1.8-2-2.9-3l-.1-.1-2.6 3zm-.1-6.8c-.4.5-.9 1-1.3 1.4-.7.8-1.5 1.6-2.1 2.5l-.1.1 2.6 2.8 3.5-3.8.2-.4-.1-.1c-.4-.3-.7-.7-1-1.1-.5-.5-.9-1.1-1.5-1.4h-.2zm7 .1c-1.1 1.2-2.2 2.4-3.2 3.7l-.1.1.1.1c.3.3.6.6.9 1 .4.5.9 1.1 1.5 1.5l.1.1 3.6-3.8-2.7-2.9-.2.2zm3.9 3.9l2.2 2.3.1-.1c1.1-.9 1-3.4.7-5.2v-.3l-3 3.3zm-18.4-3.9c-.3 1.7-.5 3.7.3 5.5l.1.2 2.5-3-2.4-2.8-.5.1zm14.8-1.3l3.7 4 2.6-2.9-.1-.1c-1-1.2-2.5-2.7-3.5-3.7l-.1-.1-2.6 2.8zm-11.9-2.8c-.3.4-.6.7-1 1-.6.6-1.1 1.1-1.4 1.8v.1l.1.1c.7.9 1.5 1.7 2.3 2.5.4.4.8.8 1.1 1.2l.1.1.1-.1c1.2-1 2.2-2.3 2.5-2.8l.1-.1-3.7-3.9-.2.1zm4.8 2.7l3.6 4 .6-.5c.7-.7 1.3-1.3 1.9-2.2l.1-.1-.1-.1c-1.1-1.4-2.2-2.6-3.4-3.7l-.1-.1-2.6 2.7zm3.8-3.1l-.2.5v.1c.7.8 1.6 1.7 2.4 2.5l.1.1.1-.1c1.3-1.3 2.4-2.6 3.3-3.9l.1-.1-2.6-2.7-3.2 3.6zm9.8-2.7c-1.2 1-2.3 2.5-2.7 3l-.1.1L165 51l.5-.3v-5.8l-.3.2zm-17.3 3l2.4 2.6.4.1h.1l3.4-3.9-2.7-2.9-3.6 4.1zm-4.1-3.3l.1 5.5.2-.3c.3-.3.6-.7 1-1 .6-.7 1.3-1.4 1.9-2.1l.1-.1-.1-.1c-.2-.2-.4-.5-.6-.8-.6-.7-1.2-1.5-1.9-1.9l-.1-.1-.6.9zm17.3-1.3H159.2l3.2 3.5.1-.1c.2-.2.4-.5.7-.7.6-.6 1.2-1.3 1.7-2.1l.1-.1-.5-.5H161.1zm-5.9 0c-.9 0-1.9 0-2.9.2l-.3.1.2.2c.3.3.6.7.9 1 .6.7 1.2 1.3 1.9 1.9l.1.1.1-.1c.2-.3.5-.5.8-.8.6-.6 1.2-1.2 1.5-1.8v-.1l-.4-.6c.2-.1-1.5-.1-1.9-.1zm-7.2 0c-.9 0-1.8.1-2.7.2h-.3l2.9 3.2 2.6-2.8-.4-.5h-.1c-.7-.1-1.4-.1-2-.1zm-4.2-3.9c-.3.8-.2 1.6-.1 2.4 0 .2.1.7.1.7h21.6v-.2-1.1c0-.6 0-1.3-.2-1.9v-.1h-21.3l-.1.2zm9.3-.8l2.8.1-.1-10.2h-2.6l-.1 10.1zM233.9 71.5L213.2 42v16.5l-22.5-32.9V6.8h22.6l19.3 27.6V6.8h23v64.7zM263.5 71.5V6.8H308v15.9h-21V31h18.6v16H287v8.2h21v16.3zM325.2 71.5v-46h-13.8V6.8h50.4v18.7H348v46zM377.7 71.6v-46h-13.8V6.8h50.4v18.8h-13.8v46zM449.4 75c-19.9 0-36.1-16.2-36.1-36.1s16.2-36.1 36.1-36.1 36.1 16.2 36.1 36.1S469.3 75 449.4 75zm-.1-47.1c-6.1 0-11 4.9-11 11s4.9 11 11 11 11-4.9 11-11-5-11-11-11z"/>
  <g>
		<path d="M214.6 66.1L169 .1l-.6-.4-.3-.1-.3.3-.1 6.9-.3.4c-1.6-1.2-2.8-2.8-4.2-4.1h-.5c-.2 0-.4.3-.4.6l.9 5.1c.1.9.7 2.2 0 2.9-1.5 1.9-2.9-.7-4.5-.7-1.2.6.9 1.6.2 2.4-1.3-1.1-3.2-2.4-5-1.8.1 1.2 2 1.7 1.9 3-1.1-.9-2.3-1.6-3.9-1.6-.5 0-1.4-.3-1.5.5.6.7 1.7 1 2.3 1.8.1.4.2.8-.2 1-3.3 1-6.6 2.1-9.8 3.4-.6.4-.9 1.3-.8 2.2 1.4 4.8 3.3 9 2.9 14.8-.1.4.4.6.7.4l3.1-3.6c.9.2.3 1.6.5 2.2 0 .6-.1 1.8.7 1.5.8-.9 1.7-2.3 2.6-2.8-.1 1.3.2 2.8-.1 4.4l-9.2.1c-.1 5.2.1 10.8 0 17.1l.3 1.9c.5 1.1 1.6 2 2.7 2.3h16.6l1.8-.6c.9-.7 1.4-1.6 1.7-2.7V39l-9.5-.2c.3-2.4-1.1-4.3 1.4-6.3 1.6-1.3.4 1.8 1.3 1.8 2.1-1.3 3-4.8 5.9-4.8 1.2 0 2.1 1.1 2.4 2l.2 29.5-.5 2.5c-.7 2-2.6 3.6-3.9 5.1-.3.9-.4 2 0 2.9.4 1 1.4 1.6 2.3 1.9l44.5.1c1.5-.2 2.6-.9 3.6-2 1.2-1.8 1.4-3.5.7-5.4zm-61.2-37.2h2.3l.1 9.9-2.5-.1.1-9.8zm-9 28.8c-.8-1.7-.6-3.7-.3-5.4h.3l2.3 2.7-2.3 2.7zm18.2-9.5c.7-1 1.7-2.2 2.7-3v5.4l-.3.2-2.4-2.6zm2.2 3.9l-2.4 2.7-3.5-3.8 2.4-2.6c1.1 1.1 2.5 2.5 3.5 3.7zm-2.4-5.2l-2.9-3.2c1.6-.1 3.2 0 4.9 0l.4.4c-.7 1.1-1.7 2-2.4 2.8zm-1.3 0c-.9 1.3-2 2.6-3.3 3.9-.8-.8-1.7-1.7-2.4-2.5l.1-.4 3.2-3.5 2.4 2.5zm-3.6 5.2c-.7 1.1-1.4 1.7-2.3 2.6l-3.4-3.8 2.3-2.5c1.2 1.1 2.3 2.3 3.4 3.7zm-2.3-5.3c-1.1-.8-1.9-2-2.8-2.9 1.5-.3 3.2-.2 4.8-.2l.3.5c-.5.9-1.6 1.8-2.3 2.6zm-1.2.2l-3.3 3.7-.3-.1-2.3-2.5 3.4-3.8L154 47zm-3.6 5c-.6.9-1.5 2-2.5 2.8-1.1-1.2-2.3-2.3-3.4-3.7.5-1.1 1.6-1.8 2.4-2.8l3.5 3.7zm-2.5-5.3l-2.6-2.9c1.6-.2 3-.2 4.7-.1l.3.4-2.4 2.6zm-1.1.2C146 48 144.9 49 144 50l-.1-5.1.4-.6c.9.5 1.7 1.7 2.5 2.6zm-1.9 11.6l1.9-2.2c1.2.9 2 2.1 2.9 3.2-1.7-.1-3.7.2-4.8-1zm3.2-2.3c1-1.4 2.3-2.6 3.4-3.9.9.6 1.6 1.7 2.5 2.5l-.1.3-3.4 3.7-2.4-2.6zm4.1 3.3c-.2 0-.4-.3-.5-.5l2.4-2.8c1.1 1 2 2 3 3.1l-4.9.2zm3.2-3.4c1-1.3 2.2-2.6 3.3-3.8l2.5 2.7-3.4 3.6c-1-.7-1.6-1.8-2.4-2.5zm3.9 3.2l-.3-.4c.8-.9 1.4-2 2.4-2.6l2.3 2.6c-.9 1-3 .5-4.4.4zm5.2-1l-2-2.1 2.7-3c.2 1.3.5 4.1-.7 5.1zm.6-18.6c.3.9.1 2 .2 3H144c-.1-1.1-.3-2 0-3h21.1zM232.5 6.6V34L213.4 6.6h-22.9v19.1l22.9 33.2V42.4l20.4 29.3h21.9V6.6zM263.4 6.6h44.7v16.2h-21v8h18.7v16.3h-18.7v8h21v16.6h-44.7zM311.3 6.6h50.6v19.1h-13.8v46H325v-46h-13.7zM363.8 6.6h50.6v19.1h-13.8v46h-23.1v-46h-13.7z"/>
		<path d="M449.4 2.6c-20 0-36.2 16.2-36.2 36.2S429.4 75 449.4 75s36.2-16.2 36.2-36.2c0-19.9-16.2-36.2-36.2-36.2zm-.1 47.1c-6 0-10.8-4.9-10.8-10.8 0-6 4.9-10.8 10.8-10.8 6 0 10.8 4.9 10.8 10.8 0 6-4.8 10.8-10.8 10.8z"/>
	</g>
</svg>
